<svg width="1280" height="112" viewBox="0 0 1280 112" fill="none" xmlns="http://www.w3.org/2000/svg">
<path d="M114.7 89.712C91.6543 91.23 49.1503 94.818 49.1503 94.818L113.32 99.786L63.3643 103.926L103.384 108.066C102.97 108.342 102.556 108.618 102.142 109.032C95.5183 114.552 85.9963 115.656 72.4723 115.656C63.0883 115.656 54.2563 114.138 46.2523 111.102L40.5943 108.618L-16.6757 104.202L29.5543 101.166L-43.4477 94.818C-43.4477 94.818 -3.8417 90.678 18.6523 89.16L-24.5417 83.916L39.3523 79.5C39.3523 79.5 1.2643 84.468 1.2643 84.606C16.8583 86.124 48.0463 89.712 48.0463 89.712L-12.3977 95.094L58.8103 99.786L16.8583 94.542L83.2363 89.022L43.2163 84.192C43.2163 84.192 71.0923 81.018 85.4443 79.5L84.4783 78.258C83.7883 77.568 82.8223 76.74 81.8563 76.05C78.4063 73.842 72.1963 71.496 63.3643 69.012C54.3943 66.528 47.2183 64.044 41.8363 61.56C34.6603 58.248 28.8643 54.246 25.0003 49.968C20.8603 45.414 18.5143 40.17 17.9623 34.512C17.4103 28.578 18.6523 23.196 22.1023 18.504C25.2763 13.812 30.2443 10.224 37.0063 7.602C43.7683 4.98 51.4963 3.738 60.1903 3.738C68.8843 3.738 76.8883 5.118 84.0643 8.016C91.2403 10.776 97.0363 14.778 101.452 20.022C105.73 25.128 108.214 31.062 108.904 37.686L109.042 38.376H82.6843V37.686C82.1323 32.856 80.0623 29.268 76.4743 26.646C72.7483 24.024 67.7803 22.782 61.7083 22.782C55.9123 22.782 51.2203 23.886 48.1843 26.094C45.2863 28.302 44.0443 31.062 44.4583 34.65C44.7343 37.824 46.8043 40.584 50.9443 42.792C55.0843 45.138 61.0183 47.346 68.8843 49.416C83.5123 53.004 94.5523 57.834 101.728 63.492C106.006 66.942 109.18 70.806 111.25 75.36C111.802 76.74 112.216 79.776 112.216 79.776C96.3463 81.432 69.2983 84.33 69.2983 84.606C84.4783 86.124 114.7 89.298 114.7 89.712ZM219.778 41.274C220.054 43.344 221.02 54.936 213.016 64.458C209.98 68.046 206.116 70.806 201.424 72.738C201.148 72.738 201.01 72.876 200.734 72.876H200.872C200.596 73.014 200.458 73.014 200.32 73.014C199.768 73.29 199.354 73.428 198.94 73.566C197.284 74.118 195.628 74.67 193.972 75.084C191.488 75.774 111.31 82.812 111.31 82.812L156.988 87.642L97.5096 93.024L158.506 97.716L110.758 103.374L161.956 107.1L162.784 114H141.118L140.29 107.1C119.452 105.444 89.6436 103.236 89.6436 103.236L140.29 97.992L69.0816 92.748L137.53 87.918L89.3676 82.812L137.254 77.982L129.664 5.80799H178.102C180.448 5.80799 182.794 5.94599 185.002 6.36H185.14C193.834 7.87799 201.562 11.328 207.22 16.158C210.67 19.194 213.43 22.782 215.5 26.784C217.846 31.062 219.226 36.03 219.778 41.274ZM195.352 53.418C198.664 50.658 200.182 46.794 199.63 41.55C199.078 36.306 196.732 32.028 192.73 28.716C188.728 25.404 183.484 23.748 176.998 23.61H153.262L156.85 57.558H180.034C186.934 57.558 192.04 56.178 195.352 53.418ZM332.896 59.214C333.172 62.25 333.31 65.148 333.172 68.046L332.896 72.6L332.482 76.326L331.93 78.258L286.804 82.95L330.688 87.504L261.136 93.714L324.202 97.44L272.728 103.098C272.728 103.098 308.746 106.272 326.824 107.79C321.166 109.17 314.956 108.894 309.298 109.722C308.47 110.274 307.504 110.826 306.538 111.24C300.328 114.276 293.428 115.794 286.252 115.794C278.938 115.794 271.762 114.276 264.862 111.24C262.102 109.998 259.48 108.618 256.996 106.962L202.348 103.098L244.576 97.578L174.334 93.162L235.468 87.504L190.894 82.674L233.536 77.982C233.398 77.568 233.26 77.292 233.122 76.878C230.776 71.22 229.258 65.286 228.568 59.214C227.05 44.448 230.776 30.648 239.056 20.436C243.196 15.192 248.164 11.052 254.098 8.154C260.308 4.98 267.208 3.46199 274.522 3.46199C281.698 3.46199 288.874 4.98 295.774 8.016C302.398 10.914 308.47 15.054 313.852 20.298C324.616 30.648 331.378 44.448 332.896 59.214ZM306.4 78.258C307.228 78.12 307.78 77.292 308.194 76.74C308.746 75.912 309.16 74.946 309.574 73.98C310.54 71.772 310.954 69.426 311.092 66.942C311.368 64.458 311.368 61.836 311.092 59.214C309.16 40.032 293.704 24.576 276.73 24.576C268.726 24.576 261.826 28.026 256.858 34.098C251.614 40.584 249.406 49.554 250.372 59.214C251.062 65.286 252.856 70.944 255.754 76.05L256.858 78.12L216.286 82.95L265.552 87.504L210.904 92.748L304.33 87.642L262.378 83.364L306.4 78.258ZM451.624 59.214C451.9 62.25 452.038 65.148 451.9 68.046L451.624 72.6L451.21 76.326L450.658 78.258L405.532 82.95L449.416 87.504L379.864 93.714L442.93 97.44L391.456 103.098C391.456 103.098 427.474 106.272 445.552 107.79C439.894 109.17 433.684 108.894 428.026 109.722C427.198 110.274 426.232 110.826 425.266 111.24C419.056 114.276 412.156 115.794 404.98 115.794C397.666 115.794 390.49 114.276 383.59 111.24C380.83 109.998 378.208 108.618 375.724 106.962L321.076 103.098L363.304 97.578L293.062 93.162L354.196 87.504L309.622 82.674L352.264 77.982C352.126 77.568 351.988 77.292 351.85 76.878C349.504 71.22 347.986 65.286 347.296 59.214C345.778 44.448 349.504 30.648 357.784 20.436C361.924 15.192 366.892 11.052 372.826 8.154C379.036 4.98 385.936 3.46199 393.25 3.46199C400.426 3.46199 407.602 4.98 414.502 8.016C421.126 10.914 427.198 15.054 432.58 20.298C443.344 30.648 450.106 44.448 451.624 59.214ZM425.128 78.258C425.956 78.12 426.508 77.292 426.922 76.74C427.474 75.912 427.888 74.946 428.302 73.98C429.268 71.772 429.682 69.426 429.82 66.942C430.096 64.458 430.096 61.836 429.82 59.214C427.888 40.032 412.432 24.576 395.458 24.576C387.454 24.576 380.554 28.026 375.586 34.098C370.342 40.584 368.134 49.554 369.1 59.214C369.79 65.286 371.584 70.944 374.482 76.05L375.586 78.12L335.014 82.95L384.28 87.504L329.632 92.748L423.058 87.642L381.106 83.364L425.128 78.258ZM403.57 91.782L465.256 86.676L425.374 81.984L468.706 76.74L461.254 6.08399H483.334L488.026 51.486L525.424 5.94599H555.37L516.73 53.004L536.05 76.74L497.548 81.432L543.916 86.124L482.92 91.644L553.852 96.198L509.416 101.58L559.096 104.616L566.824 114H546.4H539.638L532.462 105.306L481.54 101.58L527.77 96.474L456.424 91.92L513.97 85.986L469.258 81.984L509.002 76.878L503.206 69.564L497.41 76.464L449.248 82.122L489.406 86.124C468.016 88.608 428.962 92.058 428.962 92.058L492.856 96.06L448.696 101.442L493.822 105.306L494.65 114H472.57L471.742 105.72L422.89 101.58L467.188 97.164L403.57 91.782ZM642.598 5.80799H667.99L635.422 75.222L635.698 77.706L593.608 82.95L634.318 87.78L574.564 92.334L635.146 97.026L590.848 102.132L638.734 106.272L639.562 114H617.482L616.516 106.272L568.216 102.408L612.928 97.578L547.516 92.196L610.582 86.952L568.492 82.398L613.48 77.706L613.204 75.36L566.008 5.80799H591.538L621.76 50.244L642.598 5.80799ZM650.056 93.024L711.466 87.228L671.308 82.398L716.158 76.878L708.568 5.94599H730.51L738.376 77.568L694.906 82.122L737.134 87.642L679.588 92.886L779.086 97.992L744.172 104.202L794.128 106.548L795.37 114H719.608L719.056 106.686L668.134 102.27L719.884 97.716L650.056 93.024ZM805.18 78.948L797.59 5.94599H819.532L827.398 78.672L781.582 83.64L826.294 88.056L765.022 93.576L829.882 98.13L780.754 103.098L830.158 107.238L830.572 114H808.906L808.216 107.514L760.606 103.512L803.524 98.268L741.562 93.852L804.49 87.918C804.49 87.918 762.538 83.64 762.538 83.502L805.18 78.948ZM951.322 73.566V73.98C951.184 74.118 951.184 74.394 951.184 74.67C950.908 76.05 950.218 78.534 949.942 78.534L906.196 83.364L946.078 88.47L879.7 93.99L940.282 97.578L884.116 103.236C884.116 103.236 923.722 103.512 936.97 102.822C933.382 106.272 929.38 109.032 924.826 111.24C918.754 114.138 912.13 115.656 905.092 115.794H904.954C904.678 115.794 904.54 115.794 904.264 115.794C896.95 115.794 889.636 114.276 882.736 111.24C879.838 109.998 877.078 108.48 874.456 106.686C869.35 106.41 822.292 102.408 822.292 102.408L868.246 97.854L793.312 93.3L857.62 88.056L809.734 83.502L850.858 78.396L850.168 76.602C847.96 71.22 846.58 65.562 846.028 59.766C844.372 45 848.098 31.062 856.516 20.712C860.656 15.33 865.9 11.19 871.834 8.292C878.182 5.25599 885.082 3.738 892.396 3.738C899.848 3.738 907.024 5.25599 913.924 8.292C920.686 11.052 926.758 15.192 932.14 20.574C938.074 26.232 942.766 32.718 945.94 39.894H920.824C914.338 31.614 904.816 26.232 894.742 26.232C887.014 26.232 880.114 29.544 875.146 35.616C870.04 41.826 867.694 50.52 868.66 59.766C868.936 62.526 869.626 65.286 870.454 68.046C871.696 71.772 873.076 75.36 875.56 78.534C868.108 79.5 836.092 83.364 836.092 83.364C836.092 83.364 870.454 85.986 887.428 87.504C887.428 87.642 844.51 92.886 844.51 92.886L912.958 88.056L876.802 83.088L925.792 77.568L927.31 73.566H899.296L897.502 56.868H951.046C951.322 57.834 951.46 58.938 951.46 59.766C952.012 64.458 951.874 69.012 951.322 73.566ZM970.066 105.03L922.732 101.028L969.652 95.922L903.55 91.23L968.548 85.986L923.974 80.88L967.582 76.188L960.268 5.94599H982.624L987.316 50.796H1036.86L1032.17 5.94599H1054.11L1061.56 76.188L1019.19 81.156L1060.46 85.434L999.184 91.092L1064.18 95.232L1016.16 100.752C1016.16 100.752 1044.59 103.098 1064.32 104.616L1064.46 108.48L1065.01 114H1042.93L1042.1 104.754L994.216 100.89L1042.93 96.06L975.862 91.23L1038.1 85.572L996.838 80.742L1039.62 76.188L1038.79 68.736H989.11L990.076 76.326L946.33 80.88L989.386 86.124L933.358 91.092L992.836 95.508L946.468 100.614L992.56 104.616L993.25 112.758L993.388 114H970.894L970.066 105.03ZM1069.48 5.67H1166.36L1168.15 23.334H1130.75L1136.27 74.808L1136.69 78.258L1093.63 82.812L1138.48 87.228L1080.24 92.61L1139.45 97.026L1097.08 102.408L1139.31 105.996L1140.27 113.586V114H1118.19L1117.37 105.996L1072.52 102.546L1114.05 97.578L1051.26 92.748L1113.36 87.366L1072.52 82.95L1114.47 78.258L1114.19 75.636L1108.67 23.334H1071.27L1069.48 5.67ZM1275.17 89.712C1252.12 91.23 1209.62 94.818 1209.62 94.818L1273.79 99.786L1223.83 103.926L1263.85 108.066C1263.44 108.342 1263.02 108.618 1262.61 109.032C1255.99 114.552 1246.46 115.656 1232.94 115.656C1223.56 115.656 1214.72 114.138 1206.72 111.102L1201.06 108.618L1143.79 104.202L1190.02 101.166L1117.02 94.818C1117.02 94.818 1156.63 90.678 1179.12 89.16L1135.93 83.916L1199.82 79.5C1199.82 79.5 1161.73 84.468 1161.73 84.606C1177.33 86.124 1208.51 89.712 1208.51 89.712L1148.07 95.094L1219.28 99.786L1177.33 94.542L1243.7 89.022L1203.68 84.192C1203.68 84.192 1231.56 81.018 1245.91 79.5L1244.95 78.258C1244.26 77.568 1243.29 76.74 1242.32 76.05C1238.87 73.842 1232.66 71.496 1223.83 69.012C1214.86 66.528 1207.69 64.044 1202.3 61.56C1195.13 58.248 1189.33 54.246 1185.47 49.968C1181.33 45.414 1178.98 40.17 1178.43 34.512C1177.88 28.578 1179.12 23.196 1182.57 18.504C1185.74 13.812 1190.71 10.224 1197.47 7.602C1204.24 4.98 1211.96 3.738 1220.66 3.738C1229.35 3.738 1237.36 5.118 1244.53 8.016C1251.71 10.776 1257.5 14.778 1261.92 20.022C1266.2 25.128 1268.68 31.062 1269.37 37.686L1269.51 38.376H1243.15V37.686C1242.6 32.856 1240.53 29.268 1236.94 26.646C1233.22 24.024 1228.25 22.782 1222.18 22.782C1216.38 22.782 1211.69 23.886 1208.65 26.094C1205.75 28.302 1204.51 31.062 1204.93 34.65C1205.2 37.824 1207.27 40.584 1211.41 42.792C1215.55 45.138 1221.49 47.346 1229.35 49.416C1243.98 53.004 1255.02 57.834 1262.2 63.492C1266.47 66.942 1269.65 70.806 1271.72 75.36C1272.27 76.74 1272.68 79.776 1272.68 79.776C1256.81 81.432 1229.77 84.33 1229.77 84.606C1244.95 86.124 1275.17 89.298 1275.17 89.712Z" fill="#0C0A07"/>
</svg>
